<?xml version="1.0" encoding="UTF-8" standalone="no"?><!DOCTYPE svg PUBLIC "-//W3C//DTD SVG 1.1//EN" "http://www.w3.org/Graphics/SVG/1.1/DTD/svg11.dtd"><svg width="100%" height="100%" viewBox="0 0 2134 2134" version="1.1" xmlns="http://www.w3.org/2000/svg" xmlns:xlink="http://www.w3.org/1999/xlink" xml:space="preserve" xmlns:serif="http://www.serif.com/" style="fill-rule:evenodd;clip-rule:evenodd;stroke-linejoin:round;stroke-miterlimit:2;"><path d="M929.386,1097.96l-430.186,430.186c-20.748,20.747 -54.385,20.747 -75.13,-0l-50.177,-50.175c-20.712,-20.712 -20.751,-54.28 -0.088,-75.041l340.934,-342.536l-340.932,-342.534c-20.663,-20.761 -20.623,-54.33 0.089,-75.042l50.174,-50.174c20.747,-20.748 54.384,-20.748 75.13,0l430.186,430.186c20.747,20.745 20.747,54.382 -0,75.13Zm845.614,405.142l0,-70.834c0,-29.34 -23.784,-53.125 -53.125,-53.125l-672.916,0c-29.341,0 -53.125,23.785 -53.125,53.125l-0,70.834c-0,29.34 23.784,53.125 53.125,53.125l672.916,-0c29.341,-0 53.125,-23.785 53.125,-53.125Z" style="fill:#fff;fill-rule:nonzero;"/></svg>