<?xml version="1.0" encoding="UTF-8" standalone="no"?><!DOCTYPE svg PUBLIC "-//W3C//DTD SVG 1.1//EN" "http://www.w3.org/Graphics/SVG/1.1/DTD/svg11.dtd"><svg width="100%" height="100%" viewBox="0 0 1080 1080" version="1.1" xmlns="http://www.w3.org/2000/svg" xmlns:xlink="http://www.w3.org/1999/xlink" xml:space="preserve" xmlns:serif="http://www.serif.com/" style="fill-rule:evenodd;clip-rule:evenodd;stroke-linejoin:round;stroke-miterlimit:2;"><circle cx="540" cy="540" r="430" style="fill:#7c3aed;"/><path d="M761.657,313.5c-61.043,-59.429 -141.828,-93.5 -221.657,-93.5c-79.829,0 -160.614,34.071 -221.657,93.5c-63.414,61.743 -98.343,140.786 -98.343,226.5c0,85.714 38.343,169.271 64.886,217.5c26.543,48.229 62.257,102.5 95.114,102.5c45.714,0 137.143,-45.714 137.143,-45.714l-160,-297.143l-77.743,45.328c-0.957,-8.939 -1.434,-17.923 -1.429,-26.914c0,-69.386 27.6,-134.428 80.215,-185.714c50.728,-49.357 116.1,-75.557 181.814,-75.557c65.714,-0 131.043,26.2 181.814,75.614c52.615,51.229 80.2,116.271 80.2,185.714c0.006,8.981 -0.471,17.956 -1.428,26.886l-77.729,-45.357l-160,297.143c0,-0 91.429,45.714 137.143,45.714c32.857,0 68.571,-54.286 95.114,-102.5c26.543,-48.214 64.886,-131.786 64.886,-217.5c0,-85.714 -34.929,-164.757 -98.343,-226.5Z" style="fill:#fff;fill-rule:nonzero;"/></svg>