<?xml version="1.0" standalone="no"?>
<!DOCTYPE svg PUBLIC "-//W3C//DTD SVG 20010904//EN"
 "http://www.w3.org/TR/2001/REC-SVG-20010904/DTD/svg10.dtd">
<svg version="1.0" xmlns="http://www.w3.org/2000/svg"
 width="2134.000000pt" height="2134.000000pt" viewBox="0 0 2134.000000 2134.000000"
 preserveAspectRatio="xMidYMid meet">
<metadata>
Created by potrace 1.11, written by Peter Selinger 2001-2013
</metadata>
<g transform="translate(0.000000,2134.000000) scale(0.100000,-0.100000)"
fill="#000000" stroke="none">
<path d="M0 10670 l0 -10670 10670 0 10670 0 0 10670 0 10670 -10670 0 -10670
0 0 -10670z m6175 3791 c67 -31 128 -90 1651 -1614 1715 -1716 1622 -1616
1644 -1750 11 -68 0 -144 -31 -219 -20 -47 -187 -218 -1608 -1641 -1458 -1459
-1591 -1590 -1653 -1621 -114 -58 -229 -56 -350 5 -27 13 -129 107 -265 243
-197 197 -225 229 -255 291 l-33 70 -3 2775 c-2 2045 0 2791 9 2835 6 33 20
78 31 100 25 50 447 477 506 512 69 41 120 53 207 50 66 -3 94 -9 150 -36z
m8980 -5726 c105 -32 206 -126 243 -229 17 -44 20 -92 26 -341 4 -169 2 -317
-3 -354 -24 -162 -149 -291 -310 -321 -71 -13 -4862 -14 -4944 0 -130 21 -234
99 -290 218 l-32 67 -3 310 c-4 325 1 382 40 459 27 54 104 134 153 159 94 48
-31 46 2595 46 2178 1 2481 -1 2525 -14z"/>
</g>
</svg>
