<?xml version="1.0" standalone="no"?>
<!DOCTYPE svg PUBLIC "-//W3C//DTD SVG 20010904//EN"
 "http://www.w3.org/TR/2001/REC-SVG-20010904/DTD/svg10.dtd">
<svg version="1.0" xmlns="http://www.w3.org/2000/svg"
 width="2134.000000pt" height="2134.000000pt" viewBox="0 0 2134.000000 2134.000000"
 preserveAspectRatio="xMidYMid meet">
<metadata>
Created by potrace 1.11, written by Peter Selinger 2001-2013
</metadata>
<g transform="translate(0.000000,2134.000000) scale(0.100000,-0.100000)"
fill="#000000" stroke="none">
<path d="M0 10670 l0 -10670 10670 0 10670 0 0 10670 0 10670 -10670 0 -10670
0 0 -10670z m6108 3816 c29 -8 71 -26 95 -40 23 -13 754 -737 1624 -1608 1225
-1226 1587 -1594 1607 -1633 49 -96 50 -225 2 -331 -24 -53 -178 -210 -1614
-1646 -1266 -1265 -1597 -1591 -1638 -1611 -72 -36 -161 -50 -231 -38 -120 23
-151 45 -389 284 -240 240 -263 272 -285 390 -9 50 -9 79 0 124 27 135 -21 83
1115 1223 578 580 1136 1142 1241 1248 l190 192 -765 768 c-1704 1709 -1716
1721 -1748 1790 -51 107 -51 225 0 332 26 54 440 478 506 517 85 50 192 65
290 39z m9077 -5764 c113 -52 191 -135 219 -236 17 -63 31 -571 17 -663 -26
-174 -152 -306 -317 -333 -78 -13 -4845 -13 -4933 0 -164 23 -289 143 -321
305 -8 40 -10 158 -8 360 3 285 5 303 26 357 40 100 139 190 245 224 34 10
493 12 2532 11 l2490 -2 50 -23z"/>
</g>
</svg>
